# xmcd
#
# Track frame offsets: 
#        150
#        7430
#        43785
#        67383
#        85018
#        110270
#        136573
#        164168
#        196760
#
# Disc length: 2920 seconds
#
# Revision: 1
# Processed by: cddbd v1.5.2PL0 Copyright (c) Steve Scherf et al.
# Submitted via: ExactAudioCopy v1.0b3
#
DISCID=7c0b6609
DTITLE=Spectrum Meets Captain Memphis - Indian Giver
DYEAR=2008
DGENRE=Psychedelic Rock
TTITLE0=Mary
TTITLE1=The Lonesome Death of Johnny Ace
TTITLE2=Take Your Time
TTITLE3=Til Your Mainline Comes
TTITLE4=When Tommorow Hits
TTITLE5=The Old Cow Died
TTITLE6=Hey Man
TTITLE7=Confederate Dead
TTITLE8=Mary Reprise
EXTD=
EXTT0=
EXTT1=
EXTT2=
EXTT3=
EXTT4=
EXTT5=
EXTT6=
EXTT7=
EXTT8=
PLAYORDER=
